<svg xmlns="http://www.w3.org/2000/svg" version="1.1" x="0" y="0" viewBox="0 0 420.04 59.26" xml:space="preserve" preserveAspectRatio="xMinYMax meet"><path d="M246.67 59.26h1.2V0h-1.2v59.26zm31.88-32.93c0-.09-.1-.11-.24-.11-.2 0-.5-.01-.93-.15-.45-.14-.6-.57-.73-1.52l-1.36-9.18c-.05-.32-.14-.47-.27-.47-.14 0-.21.12-.33.36l-4.08 8.44-4.09-8.34c-.19-.39-.29-.47-.4-.47-.12 0-.21.14-.26.39l-1.48 9.66c-.07.51-.19 1.09-.61 1.19-.23.04-.33.04-.45.04-.15 0-.24.03-.24.1 0 .13.12.17.27.17.48 0 1.2-.04 1.48-.04.27 0 .94.04 1.57.04.23 0 .36-.03.36-.17 0-.08-.1-.1-.23-.1-.15 0-.36-.02-.63-.08-.26-.06-.45-.2-.45-.48 0-.24.02-.43.04-.71l.78-5.85h.06c.53 1.12 1.43 2.9 1.56 3.21.18.42 1.37 2.71 1.73 3.41.24.45.39.75.52.75.14 0 .21-.14.56-.84l3.27-6.69h.06l.9 6.53c.06.42.02.61-.07.64-.1.04-.17.09-.17.17 0 .09.09.13.44.17.6.04 2.67.08 3.04.08.2.02.38-.02.38-.15zm10.84-.13c-.15 0-.3-.02-.5-.04-.24-.05-.61-.21-1.12-1.37-.84-1.94-3.04-7.09-3.36-7.8-.13-.29-.19-.41-.39-.41-.14 0-.24.15-.39.51l-3.45 7.96c-.27.65-.5 1.04-1.1 1.12-.12 0-.27.02-.39.02-.1 0-.15.06-.15.13 0 .1.08.13.24.13.69 0 1.4-.04 1.53-.04.42 0 1.04.04 1.47.04.13 0 .21-.03.21-.13 0-.08-.03-.13-.2-.13h-.19c-.4 0-.52-.14-.52-.36 0-.15.06-.46.19-.78l.71-1.72c.03-.08.04-.09.12-.09h3.1c.06 0 .1.01.13.09l1.02 2.58c.06.15-.03.27-.12.29-.13.01-.17.06-.17.13 0 .09.15.09.39.1 1.11.03 2.07.03 2.53.03.5 0 .57-.03.57-.13.02-.08-.04-.13-.16-.13zm-4.47-3.66h-2.55c-.04 0-.08-.03-.04-.09l1.27-3.18c.01-.04.03-.12.07-.12.03 0 .04.08.06.12l1.25 3.19c.02.05 0 .08-.06.08zm9.83 3.93c.15 0 .25-.04.25-.13 0-.06-.06-.13-.21-.13-.2 0-.5-.02-.68-.04-.39-.06-.48-.26-.52-.6-.06-.54-.06-1.56-.06-2.79v-2.25c0-1.93 0-2.29.03-2.7.03-.45.13-.63.49-.69.15-.03.26-.04.39-.04.14 0 .21-.03.21-.15 0-.08-.1-.11-.27-.11-.51 0-1.36.03-1.69.03-.38 0-1.27-.03-1.77-.03-.21 0-.31.03-.31.11 0 .12.08.15.21.15.17 0 .33.01.48.06.29.09.42.24.45.67.02.4.02.76.02 2.7v2.25c0 1.23 0 2.25-.06 2.78-.05.38-.12.55-.39.62-.12.03-.27.04-.46.04-.17 0-.21.07-.21.13 0 .09.09.13.25.13.52 0 1.42-.04 1.72-.04.36-.02 1.26.03 2.13.03zm8.79.03c.69 0 .75-.06.84-.34.11-.38.2-1.32.2-1.47 0-.15-.03-.29-.12-.29-.1 0-.13.08-.15.2-.03.24-.17.6-.33.76-.33.35-.84.36-1.54.36-1.02 0-1.53-.08-1.75-.27-.29-.24-.29-1.05-.29-2.69v-2.25c0-1.93 0-2.29.03-2.7.03-.45.13-.63.49-.69.15-.03.36-.04.51-.04.17 0 .24-.04.24-.13s-.09-.12-.28-.12c-.51 0-1.59.03-1.91.03-.36 0-1.2-.03-1.81-.03-.19 0-.28.03-.28.12s.07.13.23.13c.17 0 .33.01.43.04.42.12.54.25.57.69.01.4.01.76.01 2.7v2.25c0 1.17 0 2.17-.06 2.71-.05.38-.12.62-.39.68-.12.03-.27.04-.46.04-.17 0-.21.07-.21.13 0 .09.09.13.25.13.27 0 .6-.01.92-.03.31 0 .6-.01.75-.01.54 0 1.09.01 1.75.03.65.04 1.41.06 2.36.06zm11.8-6.41l.73 5.5c.05.36.02.51-.06.54-.09.03-.15.08-.15.13 0 .08.08.14.39.15.52.03 2.4.08 2.73.08.19 0 .34-.04.34-.15 0-.08-.09-.12-.21-.12a2.4 2.4 0 01-.75-.12c-.4-.12-.52-.46-.65-1.26l-1.2-7.84c-.04-.27-.19-.4-.3-.4-.12 0-.24.1-.35.31l-3.54 7.14L308.8 17c-.18-.34-.27-.4-.41-.4-.1 0-.22.12-.25.33l-1.3 8.26c-.06.42-.18.93-.54.97-.21.03-.3.03-.41.03-.13 0-.21.06-.21.12 0 .12.1.15.24.15.42 0 1.05-.04 1.3-.04.24 0 .84.04 1.4.04.2 0 .31-.03.31-.15 0-.06-.09-.12-.21-.12s-.24-.02-.46-.06-.4-.13-.4-.38c0-.21.01-.38.04-.6l.63-4.92h.04c.44.88 1.21 2.43 1.32 2.67.15.36 1.2 2.31 1.52 2.89.21.39.36.65.52.65.15 0 .23-.12.52-.72l2.83-5.64h.06zm14.91 6.11c-.15 0-.3-.02-.5-.04-.24-.05-.61-.21-1.12-1.37-.84-1.94-3.04-7.09-3.36-7.8-.13-.29-.19-.41-.39-.41-.14 0-.24.15-.39.51l-3.45 7.96c-.27.65-.5 1.04-1.1 1.12-.12 0-.27.02-.39.02-.1 0-.15.06-.15.13 0 .1.08.13.24.13.69 0 1.4-.04 1.53-.04.42 0 1.04.04 1.47.04.13 0 .21-.03.21-.13 0-.08-.03-.13-.2-.13h-.19c-.4 0-.52-.14-.52-.36 0-.15.06-.46.19-.78l.71-1.72c.03-.08.04-.09.12-.09h3.1c.06 0 .1.01.13.09l1.02 2.58c.06.15-.03.27-.12.29-.13.01-.17.06-.17.13 0 .09.15.09.39.1 1.11.03 2.07.03 2.53.03.5 0 .57-.03.57-.13.02-.08-.04-.13-.16-.13zm-4.47-3.66h-2.55c-.04 0-.08-.03-.04-.09l1.27-3.18c.01-.04.03-.12.07-.12.03 0 .04.08.06.12l1.25 3.19c.02.05 0 .08-.06.08zm8.73 3.93c.18 0 .3-.03.3-.13 0-.08-.07-.13-.22-.13-.21 0-.47-.02-.69-.09-.26-.09-.42-.39-.45-1.38l-.15-5.2h.04c.25.22 1.65 1.77 3.09 3.15 1.38 1.33 3.03 2.91 3.85 3.67.13.13.31.27.54.27.1 0 .21-.12.21-.41l.15-8.04c.02-.72.12-.94.48-1.05.17-.04.27-.04.4-.04.15 0 .23-.06.23-.13 0-.11-.12-.12-.3-.12-.65 0-1.14.03-1.29.03-.29 0-.99-.03-1.68-.03-.19 0-.33.01-.33.12 0 .08.04.13.21.13.18 0 .49 0 .69.08.31.12.44.34.45 1.12l.14 5.67h-.06c-.19-.18-1.95-1.98-2.85-2.87-1.92-1.88-3.9-3.9-4.06-4.06-.23-.23-.41-.42-.57-.42-.13 0-.23.18-.23.43l-.12 7.56c-.02 1.11-.06 1.46-.41 1.54-.18.04-.42.06-.6.06-.12 0-.21.06-.21.13 0 .12.12.13.3.13.67 0 1.3-.04 1.42-.04.25 0 .87.05 1.72.05zm22.19-3.01c0-1.42-.65-2.46-2.46-3.83l-.42-.31c-1.25-.95-1.59-1.47-1.59-2.16 0-.9.67-1.54 1.78-1.54.98 0 1.41.45 1.64.73.31.39.39.86.39.99 0 .18.05.27.15.27.12 0 .17-.12.17-.45 0-1.17.06-1.61.06-1.8 0-.11-.07-.15-.21-.18-.39-.1-1.02-.25-1.99-.25-2.08 0-3.46 1.19-3.46 2.83 0 1.21.57 2.27 2.22 3.55l.69.54c1.25.98 1.47 1.67 1.47 2.4 0 .79-.66 1.71-2.01 1.71-.93 0-1.81-.41-2.14-1.51-.08-.26-.14-.57-.14-.77 0-.12-.02-.25-.15-.25-.12 0-.17.17-.18.39-.01.24-.07 1.14-.07 1.97 0 .33.04.4.28.51.65.29 1.32.39 2.19.39.79 0 1.64-.13 2.39-.62 1.06-.71 1.39-1.74 1.39-2.61zm11.62.59c-.1 0-.14.06-.17.25-.04.24-.23.6-.45.86-.52.58-1.17.67-2.34.67-1.77 0-4.11-1.44-4.11-4.47 0-1.25.24-2.47 1.22-3.32.6-.51 1.33-.72 2.49-.72 1.21 0 2.1.32 2.55.75.33.33.5.78.51 1.19 0 .17.03.27.13.27.12 0 .17-.13.18-.31.01-.26.01-.96.04-1.38.03-.45.06-.6.06-.7 0-.08-.04-.14-.2-.15-.39-.04-.82-.13-1.32-.21-.6-.08-1.09-.13-1.92-.13-1.96 0-3.22.51-4.18 1.35-1.26 1.12-1.55 2.62-1.55 3.5 0 1.23.35 2.67 1.65 3.76 1.2 1 2.73 1.38 4.53 1.38.85 0 1.86-.08 2.38-.29.23-.09.29-.15.34-.38.14-.43.29-1.54.29-1.69.02-.11-.04-.23-.13-.23zm13.61 2.42c.17 0 .27-.04.27-.13 0-.06-.07-.13-.21-.13-.21 0-.5-.02-.67-.04-.41-.06-.48-.3-.52-.66-.06-.56-.06-1.56-.06-2.73v-2.25c0-1.93 0-2.29.03-2.7.03-.45.14-.63.48-.69.17-.03.29-.04.39-.04.15 0 .24-.04.24-.13s-.09-.12-.28-.12c-.51 0-1.38.03-1.7.03-.34 0-1.27-.03-1.98-.03-.2 0-.29.03-.29.12s.07.13.23.13c.18 0 .4.01.51.04.42.12.54.25.57.69.02.4.03.87.03 2.8v.27c0 .08-.04.09-.08.09h-4.98c-.05 0-.09-.02-.09-.09v-.27c0-1.93 0-2.4.03-2.8.03-.45.13-.63.49-.69.15-.03.27-.04.38-.04.17 0 .24-.04.24-.13s-.09-.12-.27-.12c-.52 0-1.44.03-1.75.03-.36 0-1.23-.03-1.94-.03-.18 0-.28.03-.28.12s.09.13.22.13c.2 0 .42.01.52.04.42.12.54.25.57.69.01.4.01.76.01 2.7v2.25c0 1.17 0 2.17-.06 2.71-.05.38-.12.62-.39.68-.12.03-.27.04-.46.04-.17 0-.21.07-.21.13 0 .09.09.13.25.13.52 0 1.4-.04 1.69-.04.38 0 1.29.04 2.15.04.17 0 .27-.04.27-.13 0-.06-.06-.13-.21-.13-.2 0-.5-.02-.68-.04-.39-.06-.46-.3-.51-.66-.06-.56-.08-1.53-.08-2.7v-.97c0-.06.04-.08.09-.08h4.98c.03 0 .08.03.08.08v.97c0 1.17 0 2.14-.06 2.68-.04.38-.12.62-.39.68-.12.03-.27.04-.48.04-.15 0-.21.07-.21.13 0 .09.1.13.29.13.51 0 1.44-.04 1.74-.04.36-.01 1.23.04 2.09.04zm13.21-5.06c0-2.92-2.07-4.77-5.4-4.77-4 0-5.54 2.82-5.54 4.99 0 2.27 1.56 5 5.4 5 3.41 0 5.54-2.29 5.54-5.22zm-4.99 4.53c-2.49 0-3.99-2.07-3.99-4.69 0-3.15 1.73-3.93 3.19-3.93 2.13 0 3.82 1.74 3.82 4.56.01 3.63-2.09 4.06-3.02 4.06zm12.75-9.29c-4 0-5.53 2.82-5.53 4.99 0 2.27 1.56 5 5.4 5 3.41 0 5.54-2.29 5.54-5.22s-2.08-4.77-5.41-4.77zm.4 9.29c-2.49 0-3.99-2.07-3.99-4.69 0-3.15 1.73-3.93 3.2-3.93 2.13 0 3.83 1.74 3.83 4.56-.01 3.63-2.11 4.06-3.04 4.06zm7.19-8.86c.17 0 .33.01.44.04.42.12.54.25.57.69.02.4.02.76.02 2.7v2.25c0 1.17 0 2.17-.06 2.71-.04.38-.12.62-.39.68-.12.03-.27.04-.46.04-.17 0-.21.07-.21.13 0 .09.09.13.25.13.27 0 .6-.01.92-.03.31 0 .6-.01.75-.01.54 0 1.09.01 1.75.03.66.03 1.42.04 2.37.04.69 0 .75-.06.84-.34.1-.38.19-1.32.19-1.47 0-.15-.03-.29-.12-.29-.11 0-.14.08-.15.2-.03.24-.17.6-.33.76-.33.35-.84.36-1.54.36-1.02 0-1.53-.08-1.75-.27-.29-.24-.29-1.05-.29-2.69v-2.25c0-1.93 0-2.29.03-2.7.03-.45.13-.63.5-.69.15-.03.36-.04.51-.04.17 0 .24-.04.24-.13s-.09-.12-.29-.12c-.51 0-1.59.03-1.91.03-.36 0-1.2-.03-1.81-.03-.2 0-.29.03-.29.12s.07.15.22.15zM269.08 34.4c-4 0-5.53 2.82-5.53 4.99 0 2.27 1.56 5 5.4 5 3.4 0 5.53-2.29 5.53-5.22s-2.07-4.77-5.4-4.77zm.41 9.29c-2.49 0-3.99-2.07-3.99-4.69 0-3.15 1.73-3.93 3.19-3.93 2.13 0 3.82 1.74 3.82 4.56.01 3.63-2.09 4.06-3.02 4.06zm13.57-9.22c-.08 0-.14.06-.21.08-.14.03-.3.04-.54.06-.31.01-3.24 0-3.75 0-.38 0-1.21-.03-1.89-.03-.21 0-.31.03-.31.12s.1.13.22.13c.2 0 .42.01.52.04.42.11.54.25.57.69.02.4.02.76.02 2.7v2.25c0 1.23 0 2.17-.06 2.71-.05.38-.12.62-.39.68-.12.03-.27.04-.46.04-.15 0-.2.07-.2.13 0 .1.09.13.27.13.5 0 1.33-.04 1.68-.04.34 0 1.27.04 2.11.04.19 0 .29-.04.29-.13 0-.06-.06-.13-.23-.13-.18 0-.46-.02-.65-.04-.39-.06-.48-.3-.52-.68-.06-.54-.08-1.44-.08-2.67V39.5c0-.09.03-.1.09-.1.22 0 1.78.01 2.11.04.4.03.57.29.63.46.06.15.09.3.09.39s.05.18.12.18c.14 0 .15-.18.15-.29 0-.09.02-.67.05-.93.04-.4.1-.75.1-.82s-.03-.12-.08-.12c-.08 0-.1.06-.18.13-.12.17-.31.21-.55.22-.2.02-.38.02-.6.02l-1.84.01c-.08 0-.09-.04-.09-.12V35.5c0-.15.04-.18.12-.18l2.19.04c.5.01.75.21.84.39.09.18.08.38.08.48 0 .15.07.21.17.21.09 0 .12-.15.13-.25.02-.15.04-.9.06-1.04.04-.33.1-.48.1-.57.01-.05-.03-.11-.08-.11zm12.59-1.59c-.69 0-1.56.04-2.17.04-.42 0-1.37-.04-2.16-.04-.23 0-.33.03-.33.14 0 .1.09.13.26.13.21 0 .46.01.58.04.49.1.61.34.64.85.03.48.03.9.03 3.18v2.64c0 1.38 0 2.56-.08 3.19-.06.44-.13.77-.44.83-.13.03-.31.06-.54.06-.18 0-.24.04-.24.12 0 .11.1.15.3.15.6 0 1.54-.04 1.89-.04.39 0 1.33.04 2.32.04.17 0 .29-.04.29-.15 0-.07-.08-.12-.24-.12-.23 0-.56-.03-.77-.06-.45-.06-.54-.39-.58-.81-.08-.65-.08-1.83-.08-3.21v-6c0-.17.04-.25.12-.29.13-.04.36-.06.58-.06.35 0 .96.09 1.5.58.84.75.88 1.75.88 2.25 0 1.53-1.17 2.47-2.01 2.47-.31 0-.42.04-.42.17 0 .11.1.12.18.13.07.02.24.02.31.02 2.13 0 3.69-1.5 3.69-3.63 0-.79-.42-1.47-.75-1.79-.21-.2-.89-.83-2.76-.83zm15.67 1.7c-.51 0-1.4.03-1.54.03-.02 0-.9-.03-1.57-.03-.18 0-.27.03-.27.12s.07.13.23.13c.15 0 .38.01.48.04.42.12.52.25.55.69.02.4.03.76.03 2.7v1.61c0 1.3-.03 2.42-.77 3.1-.52.51-1.2.67-1.77.67-.45 0-1.08-.04-1.67-.51-.65-.51-1-1.23-1-3.09v-1.79c0-1.93 0-2.29.03-2.7.03-.45.13-.63.48-.69.17-.03.24-.04.39-.04.14 0 .21-.04.21-.13s-.09-.12-.28-.12c-.48 0-1.37.03-1.7.03-.39 0-1.27-.03-1.98-.03-.2 0-.29.03-.29.12s.08.13.23.13c.18 0 .4.01.51.04.42.12.54.24.57.69.03.4.02.76.02 2.7v1.88c0 1.85.52 2.79 1.2 3.38.96.84 2.32.87 3.01.87.85 0 1.86-.13 2.79-.92 1.11-.92 1.26-2.42 1.26-3.84v-1.37c0-1.93.02-2.29.03-2.7.03-.45.12-.63.48-.69.17-.03.24-.04.39-.04.15 0 .23-.04.23-.13s-.1-.11-.28-.11zm7.35 4.13c.75-.48 1.48-1.25 1.48-2.23 0-.68-.42-1.91-2.81-1.91-.45 0-1.32.03-1.98.03-.25 0-1.09-.03-1.78-.03-.19 0-.3.03-.3.12s.09.13.22.13c.2 0 .42.01.52.04.42.12.54.25.57.69.01.4.01.76.01 2.7v2.25c0 1.17 0 2.17-.06 2.71-.05.38-.12.62-.39.68-.12.03-.27.04-.46.04-.17 0-.21.07-.21.13 0 .09.09.13.25.13.27 0 .6-.01.92-.03.31 0 .6-.01.75-.01.21 0 .67.01 1.12.03.45.03.9.04 1.05.04 2.43 0 3.51-1.41 3.51-2.78.02-1.47-1.33-2.38-2.41-2.73zm-2.34-3.31c0-.13.03-.2.12-.21.14-.03.39-.03.57-.03 1.14 0 1.65 1.07 1.65 1.92 0 .62-.26 1.08-.6 1.35-.23.18-.6.23-1.04.23-.3 0-.5-.02-.61-.04-.04-.02-.09-.03-.09-.14V35.4zm1.41 8.23c-.3 0-.6-.01-.94-.15-.42-.16-.47-.42-.47-1.26v-2.89c0-.08.03-.09.08-.09h.57c.51 0 .87.13 1.14.33.99.67 1.25 1.68 1.25 2.26-.01 1.42-.92 1.8-1.63 1.8zm12.47-1.48c-.1 0-.13.08-.15.2-.03.24-.17.6-.33.76-.33.35-.84.36-1.54.36-1.02 0-1.53-.08-1.75-.27-.29-.24-.29-1.05-.29-2.69v-2.25c0-1.93 0-2.29.03-2.7.03-.45.13-.63.49-.69.15-.03.36-.04.51-.04.17 0 .24-.04.24-.13s-.09-.12-.28-.12c-.51 0-1.59.03-1.91.03-.36 0-1.2-.03-1.81-.03-.2 0-.29.03-.29.12s.07.13.23.13c.17 0 .33.01.43.04.42.12.54.25.57.69.02.4.02.76.02 2.7v2.25c0 1.17 0 2.17-.06 2.71-.05.38-.12.62-.39.68-.12.03-.27.04-.46.04-.17 0-.21.07-.21.13 0 .09.09.13.25.13.27 0 .6-.01.92-.03.31 0 .6-.01.75-.01.54 0 1.09.01 1.75.03.66.03 1.42.04 2.37.04.69 0 .75-.06.84-.34.1-.38.19-1.32.19-1.47 0-.13-.03-.27-.12-.27zm6.22 1.8c-.2 0-.5-.02-.68-.04-.39-.06-.48-.26-.52-.6-.06-.54-.06-1.56-.06-2.79v-2.25c0-1.93 0-2.29.03-2.7.03-.45.13-.63.49-.69.15-.03.26-.04.39-.04.14 0 .21-.03.21-.15 0-.08-.1-.11-.27-.11-.51 0-1.36.03-1.69.03-.38 0-1.27-.03-1.77-.03-.21 0-.31.03-.31.11 0 .12.08.15.21.15.17 0 .33.01.48.06.29.09.42.24.45.67.01.4.01.76.01 2.7v2.25c0 1.23 0 2.25-.06 2.78-.05.38-.12.55-.39.62-.12.03-.27.04-.46.04-.17 0-.21.07-.21.13 0 .09.09.13.25.13.52 0 1.42-.04 1.72-.04.36 0 1.26.04 2.13.04.15 0 .25-.04.25-.13.01-.07-.05-.14-.2-.14zm11.28-2.15c-.1 0-.14.06-.17.25-.04.24-.23.6-.45.86-.52.58-1.17.67-2.34.67-1.77 0-4.11-1.44-4.11-4.47 0-1.25.24-2.47 1.22-3.32.6-.51 1.33-.72 2.49-.72 1.21 0 2.1.32 2.55.75.33.33.5.78.51 1.19 0 .17.03.27.13.27.12 0 .17-.13.18-.31.01-.26.01-.96.04-1.38.03-.45.06-.6.06-.7 0-.08-.05-.14-.2-.15-.39-.04-.82-.13-1.32-.21-.6-.08-1.09-.13-1.92-.13-1.96 0-3.22.51-4.18 1.35-1.26 1.12-1.54 2.62-1.54 3.5 0 1.23.34 2.67 1.65 3.76 1.2 1 2.73 1.38 4.53 1.38.85 0 1.86-.08 2.38-.29.23-.09.29-.15.34-.38.14-.43.29-1.54.29-1.69.01-.11-.05-.23-.14-.23zm20.36 2.15c-.23 0-.56-.03-.77-.06-.45-.06-.54-.39-.58-.81-.07-.65-.07-1.83-.07-3.21v-2.64c0-2.28 0-2.7.03-3.18.03-.52.15-.78.56-.85.18-.03.31-.04.44-.04.18 0 .27-.03.27-.13 0-.11-.1-.14-.32-.14-.58 0-1.53.04-1.89.04-.4 0-1.35-.04-2.16-.04-.21 0-.31.03-.31.14 0 .1.09.13.26.13.21 0 .46.01.58.04.49.1.61.34.64.85.03.48.03.9.03 3.18v.31c0 .08-.04.11-.09.11h-5.73c-.04 0-.09-.03-.09-.11v-.31c0-2.28 0-2.7.03-3.18.03-.52.15-.78.56-.85.18-.03.31-.04.44-.04.18 0 .27-.03.27-.13 0-.11-.11-.14-.32-.14-.58 0-1.53.04-1.89.04-.41 0-1.35-.04-2.16-.04-.21 0-.31.03-.31.14 0 .1.09.13.26.13.21 0 .46.01.58.04.49.1.61.34.64.85.03.48.03.9.03 3.18v2.64c0 1.38 0 2.56-.08 3.19-.06.44-.13.77-.44.83-.13.03-.31.06-.54.06-.18 0-.24.04-.24.12 0 .11.1.15.3.15.6 0 1.54-.04 1.89-.04.42 0 1.36.04 2.34.04.18 0 .3-.04.3-.15 0-.07-.08-.12-.24-.12-.23 0-.56-.03-.77-.06-.45-.06-.54-.39-.58-.81-.07-.65-.07-1.83-.07-3.21v-1.32c0-.08.04-.09.09-.09h5.73c.04 0 .09.03.09.09v1.32c0 1.38 0 2.56-.08 3.19-.06.44-.13.77-.44.83-.13.03-.31.06-.54.06-.18 0-.24.04-.24.12 0 .11.1.15.31.15.58 0 1.53-.04 1.88-.04.42 0 1.36.04 2.34.04.18 0 .3-.04.3-.15 0-.07-.08-.12-.24-.12zm9.16-1.74c-.09 0-.12.06-.15.2-.09.52-.24.79-.57.94-.34.15-.9.17-1.24.17-1.35 0-1.75-.19-1.79-1.06-.01-.38 0-1.46 0-1.89v-1.02c0-.08.02-.13.08-.13.33 0 1.83.03 2.07.06.5.04.66.24.73.5.03.17.03.33.04.46 0 .06.03.11.12.11.12 0 .14-.18.14-.29 0-.09.03-.6.06-.86.07-.64.1-.85.1-.93s-.05-.13-.1-.13c-.06 0-.1.08-.21.17-.13.12-.31.17-.63.19-.3.03-2.01.03-2.31.03-.08 0-.09-.06-.09-.13v-3.15c0-.07.03-.12.09-.12.27 0 1.84.03 2.07.06.66.06.76.24.87.46.08.15.09.38.09.46 0 .11.02.17.1.17.1 0 .13-.15.15-.21.03-.15.06-.71.08-.84.03-.58.1-.73.1-.83 0-.06-.02-.12-.09-.12-.06 0-.13.05-.21.06-.1.01-.31.06-.55.08-.26.01-3.18 0-3.6 0-.38 0-1.21-.03-1.9-.03-.19 0-.3.03-.3.12s.09.13.22.13c.2 0 .42.01.52.04.42.12.54.25.57.69.01.4.01.76.01 2.7v2.25c0 1.17 0 2.17-.06 2.71-.05.38-.12.62-.39.68-.12.03-.27.04-.46.04-.17 0-.21.07-.21.13 0 .09.09.13.25.13.27 0 .6-.01.92-.03.31 0 .6-.01.75-.01.39 0 .88.01 1.53.03.65.03 1.44.04 2.43.04.5 0 .62 0 .71-.33.08-.25.18-1.12.18-1.41 0-.13-.01-.29-.12-.29zm11.73 1.74c-.15 0-.3-.02-.5-.04-.24-.05-.61-.21-1.12-1.37-.84-1.94-3.04-7.09-3.36-7.8-.13-.29-.19-.41-.39-.41-.14 0-.24.15-.39.51l-3.45 7.96c-.27.65-.5 1.04-1.1 1.12-.12 0-.27.02-.39.02-.1 0-.15.06-.15.13 0 .1.08.13.24.13.69 0 1.4-.04 1.53-.04.42 0 1.04.04 1.47.04.13 0 .21-.03.21-.13 0-.08-.03-.13-.2-.13h-.19c-.4 0-.52-.14-.52-.36 0-.15.06-.46.19-.78l.71-1.72c.03-.08.04-.09.12-.09h3.1c.06 0 .1.01.13.09l1.02 2.58c.06.15-.03.27-.12.29-.13.01-.17.06-.17.13 0 .09.15.09.39.1 1.11.03 2.07.03 2.53.03.5 0 .57-.03.57-.13.02-.08-.04-.13-.16-.13zm-4.47-3.66h-2.55c-.04 0-.08-.03-.04-.09l1.27-3.18c.01-.04.03-.12.07-.12.03 0 .04.08.06.12l1.25 3.19c.02.05 0 .08-.06.08zm12.68 1.86c-.1 0-.13.08-.15.2-.03.24-.17.6-.33.76-.33.35-.84.36-1.54.36-1.02 0-1.53-.08-1.75-.27-.29-.24-.29-1.05-.29-2.69v-2.25c0-1.93 0-2.29.03-2.7.03-.45.13-.63.49-.69.15-.03.36-.04.51-.04.17 0 .24-.04.24-.13s-.09-.12-.28-.12c-.51 0-1.59.03-1.91.03-.36 0-1.2-.03-1.81-.03-.2 0-.29.03-.29.12s.07.13.23.13c.17 0 .33.01.43.04.42.12.54.25.57.69.02.4.02.76.02 2.7v2.25c0 1.17 0 2.17-.06 2.71-.05.38-.12.62-.39.68-.12.03-.27.04-.46.04-.17 0-.21.07-.21.13 0 .09.09.13.25.13.27 0 .6-.01.92-.03.31 0 .6-.01.75-.01.54 0 1.09.01 1.75.03.66.03 1.42.04 2.37.04.69 0 .75-.06.84-.34.1-.38.19-1.32.19-1.47 0-.13-.03-.27-.12-.27zm9.43-7.66c-.04 0-.15.03-.36.06-.2.03-.48.06-.9.06h-5.35c-.43 0-.93-.02-1.32-.06-.33-.04-.46-.15-.57-.15-.08 0-.12.07-.15.24-.03.11-.28 1.33-.28 1.54 0 .14.03.21.12.21s.12-.06.15-.16c.03-.09.09-.26.22-.44.2-.29.51-.38 1.28-.39l1.96-.04v5.16c0 1.17 0 2.17-.06 2.71-.04.38-.12.62-.39.68-.11.03-.27.04-.46.04-.17 0-.21.07-.21.13 0 .09.09.13.25.13.53 0 1.42-.04 1.72-.04.38 0 1.26.04 2.13.04.15 0 .25-.04.25-.13 0-.06-.06-.13-.21-.13-.19 0-.49-.02-.67-.04-.39-.06-.46-.3-.51-.66-.06-.56-.08-1.56-.08-2.73v-5.16l1.67.03c1.18.02 1.53.41 1.56.74l.02.13c.01.2.04.25.15.25.08 0 .11-.07.12-.21 0-.33.03-1.27.03-1.54 0-.2-.02-.27-.11-.27zm13.23 9.46c-.21 0-.5-.02-.67-.04-.41-.06-.48-.3-.53-.66-.06-.56-.06-1.56-.06-2.73v-2.25c0-1.93 0-2.29.03-2.7.03-.45.13-.63.48-.69.17-.03.29-.04.39-.04.15 0 .24-.04.24-.13s-.09-.12-.29-.12c-.51 0-1.38.03-1.69.03-.35 0-1.28-.03-1.98-.03-.19 0-.29.03-.29.12s.08.13.23.13c.18 0 .41.01.51.04.42.12.54.25.57.69.01.4.03.87.03 2.8v.27c0 .08-.04.09-.07.09h-4.98c-.04 0-.09-.02-.09-.09v-.27c0-1.93 0-2.4.03-2.8.03-.45.13-.63.5-.69.15-.03.27-.04.38-.04.17 0 .24-.04.24-.13s-.09-.12-.27-.12c-.53 0-1.44.03-1.75.03-.36 0-1.23-.03-1.93-.03-.18 0-.29.03-.29.12s.09.13.22.13c.2 0 .42.01.53.04.42.12.54.25.57.69.02.4.02.76.02 2.7v2.25c0 1.17 0 2.17-.06 2.71-.04.38-.12.62-.39.68-.12.03-.27.04-.46.04-.17 0-.21.07-.21.13 0 .09.09.13.25.13.52 0 1.39-.04 1.7-.04.38 0 1.29.04 2.14.04.17 0 .27-.04.27-.13 0-.06-.06-.13-.21-.13-.19 0-.5-.02-.67-.04-.39-.06-.46-.3-.51-.66-.06-.56-.08-1.53-.08-2.7v-.97c0-.06.04-.08.09-.08h4.98c.03 0 .07.03.07.08v.97c0 1.17 0 2.14-.06 2.68-.04.38-.12.62-.39.68-.12.03-.27.04-.48.04-.15 0-.21.07-.21.13 0 .09.11.13.29.13.51 0 1.44-.04 1.74-.04.36 0 1.23.04 2.08.04.17 0 .27-.04.27-.13-.02-.06-.09-.13-.23-.13zM76.87 38.21c-.26 0-.33.13-.42.65-.13.58-.55 1.53-1.1 2.14-1.3 1.5-3.06 1.82-5.95 1.82-4.35 0-10.24-3.84-10.24-11.57 0-3.15.62-6.24 2.99-8.42 1.43-1.3 3.28-2.02 6.11-2.02 2.99 0 5.52.88 6.6 2.02.81.84 1.24 1.98 1.27 2.99 0 .46.07.72.32.72.29 0 .36-.26.39-.75.07-.65.03-2.44.1-3.51.06-1.14.16-1.53.16-1.79 0-.19-.13-.36-.49-.39-.98-.1-2.02-.39-3.25-.55-1.5-.19-2.7-.32-4.71-.32-4.84 0-7.93 1.3-10.27 3.44-3.12 2.86-3.81 6.7-3.81 8.91 0 3.15.85 6.79 4.03 9.59 2.96 2.57 6.7 3.54 11.15 3.54 2.08 0 4.55-.22 5.85-.75.55-.23.69-.39.85-.94.33-1.11.72-3.93.72-4.33-.01-.25-.08-.48-.3-.48zM5.44 44.23h31.12v-2.56H5.44v2.56zm225.09-.48c-.33 0-.73-.03-1.14-.11-.57-.13-1.36-.52-2.4-2.96-1.74-4.13-6.09-15.23-6.74-16.73-.27-.62-.43-.87-.68-.87-.27 0-.44.3-.76 1.09l-6.83 17.08c-.54 1.36-1.06 2.28-2.31 2.45-.22.03-.6.06-.84.06-.22 0-.33.05-.33.22 0 .22.16.27.52.27 1.41 0 2.91-.08 3.21-.08.85 0 2.01.08 2.88.08.3 0 .46-.06.46-.27 0-.16-.08-.22-.41-.22h-.41c-.84 0-1.09-.36-1.09-.85 0-.33.14-.98.41-1.66l1.47-3.89c.05-.16.11-.22.24-.22h6.07c.13 0 .22.05.27.19l2.18 5.77c.14.33-.05.57-.25.63-.27.03-.38.08-.38.24 0 .19.32.19.82.22 2.18.06 4.16.06 5.14.06 1.01 0 1.25-.06 1.25-.27 0-.2-.14-.23-.35-.23zm-9.2-7.97h-5c-.11 0-.14-.08-.11-.19l2.5-6.69c.03-.11.08-.24.16-.24s.11.14.14.24l2.45 6.72c.03.08 0 .16-.14.16zM24.62 21.9c-.37.12-.76.01-1.09-.26-.29-.24-.6-.45-.9-.62a3.18 3.18 0 001.56-2.74c0-1.59-1.17-2.91-2.69-3.15l1.17-1.51a.45.45 0 000-.54l-1.45-1.88a.248.248 0 00-.21-.11c-.08 0-.15.03-.21.11l-1.45 1.88a.45.45 0 000 .54l1.17 1.51a3.178 3.178 0 00-2.69 3.15c0 1.16.63 2.18 1.57 2.74-.3.18-.61.38-.9.62-.34.27-.72.38-1.09.26-6.65-2.12-12.51-4.16-15.83-.9-3.98 3.91.65 10.22 2.11 12.82 1.02 1.83 1.75 3.95 1.75 5.63h31.12c0-1.69.73-3.81 1.75-5.63 1.46-2.6 6.1-8.91 2.11-12.82-3.33-3.26-9.18-1.22-15.8.9zm-8.36 15.4c-1.2.08-2.2-1.03-2.58-2.55l.99-2.31c.11-.25.04-.49-.13-.66l-3.13-3.12c-.18-.18-.34-.18-.42 0L9.5 31.77c-.11.27.01.48.17.65l2.34 2.36c.49 1.86-.77 2.53-1.48 2.53-2.48 0-4.46-3.37-6.48-6.86-1.99-3.43-2.69-5.94-1.19-7.83 2.5-3.16 9.08-.66 14.19 1.67-.05.73.12 1.58.58 2.59 2.69 6.02.87 10.27-1.37 10.42zm21.69-6.84c-2.02 3.49-4.01 6.86-6.48 6.86-.71 0-1.97-.67-1.48-2.53l2.34-2.36c.16-.18.28-.39.17-.65l-1.48-3.12c-.08-.18-.25-.18-.42 0l-3.13 3.12c-.17.17-.24.41-.13.66l.99 2.31c-.38 1.52-1.37 2.64-2.58 2.55-2.24-.15-4.06-4.41-1.36-10.41.45-1.01.62-1.86.58-2.59 5.11-2.33 11.68-4.83 14.19-1.67 1.48 1.89.78 4.4-1.21 7.83zm136.94 13.29c-.35 0-.9-.03-1.69-.27-.81-.24-1.09-1.03-1.33-2.75l-2.48-16.8c-.08-.57-.24-.85-.49-.85-.24 0-.41.22-.6.65l-7.4 15.53-7.42-15.34c-.35-.71-.52-.85-.73-.85-.22 0-.38.25-.46.71l-2.69 17.73c-.14.92-.35 1.99-1.12 2.15-.41.08-.6.08-.81.08-.27 0-.44.05-.44.19 0 .25.22.3.49.3.87 0 2.18-.09 2.69-.09.49 0 1.71.09 2.86.09.41 0 .65-.06.65-.3 0-.14-.19-.19-.41-.19-.27 0-.65-.03-1.14-.14-.46-.11-.82-.35-.82-.87 0-.43.03-.79.08-1.28l1.41-10.82h.11c.95 2.04 2.58 5.46 2.83 6.04.33.76 2.48 4.92 3.13 6.17.44.82.71 1.36.95 1.36.25 0 .38-.25 1.01-1.52L167 30.33h.11l1.63 11.97c.11.76.03 1.11-.14 1.17-.19.08-.3.16-.3.3 0 .16.16.24.79.3 1.09.08 4.84.16 5.52.16.38 0 .71-.08.71-.3.01-.15-.18-.18-.43-.18zm13.68-11.23c1.5-1.2 2.77-2.53 2.77-4.76 0-1.44-.87-4.08-5.79-4.08-.93 0-1.99.08-3.32.08-.54 0-2.26-.08-3.7-.08-.41 0-.6.05-.6.25 0 .19.16.24.46.24.38 0 .84.03 1.06.08.9.19 1.12.63 1.17 1.55.05.87.05 1.63.05 5.77v4.79c0 2.5 0 4.65-.14 5.79-.11.79-.25 1.39-.79 1.5-.25.05-.57.11-.98.11-.33 0-.44.08-.44.22 0 .19.19.27.54.27 1.09 0 2.8-.08 3.43-.08.82 0 3.29.16 3.94.16 5 0 7.26-3.02 7.26-5.93.03-3.19-2.69-5.12-4.92-5.88zm-4.63-7.21c0-.3.05-.41.25-.46.27-.05.52-.05.9-.05 2.34 0 3.4 2.39 3.4 4.22 0 1.33-.41 2.31-1.12 2.88-.46.41-1.06.52-1.96.52-.62 0-1.03-.03-1.28-.08-.11-.03-.19-.08-.19-.3v-6.73zm2.94 17.79c-.62 0-1.25-.03-1.98-.33-.87-.35-.95-.82-.95-2.61v-6.44c0-.14.05-.19.16-.19.41 0 .68 0 1.17.03 1.06.05 1.69.24 2.26.65 2.07 1.44 2.64 3.73 2.64 5.41-.01 2.83-2.08 3.48-3.3 3.48zm18.94.65c-.41 0-1.01-.06-1.39-.11-.82-.11-1.01-.6-1.09-1.33-.11-1.17-.11-3.32-.11-5.96v-4.79c0-4.13 0-4.9.05-5.76.06-.95.27-1.42 1.01-1.55.33-.05.54-.08.82-.08.27 0 .43-.06.43-.27 0-.16-.22-.22-.57-.22-1.03 0-2.64.08-3.32.08-.79 0-2.5-.08-3.54-.08-.43 0-.65.05-.65.22 0 .22.16.27.44.27.33 0 .68.03.98.11.6.14.87.6.93 1.52.05.87.05 1.63.05 5.76v4.79c0 2.64 0 4.79-.14 5.93-.08.79-.24 1.25-.79 1.36-.24.05-.57.11-.98.11-.33 0-.44.08-.44.22 0 .19.19.27.54.27 1.09 0 2.8-.08 3.43-.08.73 0 2.45.08 4.24.08.3 0 .52-.08.52-.27.02-.14-.12-.22-.42-.22zM121.26 40c-.22 0-.27.17-.3.41-.05.52-.38 1.28-.71 1.63-.68.73-1.74.76-3.18.76-2.12 0-2.83-.19-3.29-.6-.57-.49-.57-2.36-.57-5.85v-4.79c0-4.13 0-4.9.06-5.77.05-.95.27-1.41 1.01-1.55.33-.05.76-.08 1.06-.08.33 0 .49-.06.49-.25s-.19-.25-.57-.25c-1.06 0-3.05.09-3.7.09-.73 0-2.45-.09-3.73-.09-.41 0-.6.05-.6.25 0 .19.16.25.46.25.35 0 .68.03.9.08.9.19 1.12.63 1.17 1.55.06.87.06 1.63.06 5.77v4.79c0 2.5 0 4.65-.14 5.79-.11.79-.24 1.39-.79 1.5-.25.05-.57.11-.98.11-.33 0-.44.08-.44.22 0 .19.19.27.54.27 1.09 0 2.8-.08 3.43-.08 2.2 0 4 .16 7.91.16 1.41 0 1.55-.14 1.71-.73.22-.79.41-2.83.41-3.13.01-.33-.01-.46-.21-.46zM92.49 23.3c-8.16 0-11.23 6.01-11.23 10.66 0 4.81 3.15 10.66 10.96 10.66 6.91 0 11.26-4.92 11.26-11.15-.01-6.23-4.22-10.17-10.99-10.17zm.87 19.96c-5.22 0-8.35-4.49-8.35-10.14 0-6.77 3.56-8.51 6.69-8.51 4.46 0 7.97 3.78 7.97 9.87 0 7.86-4.41 8.78-6.31 8.78zm51.83-19.58c-1.06 0-2.78.08-3.1.08-.03 0-1.74-.08-3.13-.08-.38 0-.57.05-.57.25 0 .19.16.24.46.24.3 0 .76.03.98.08.9.19 1.11.63 1.17 1.55.05.87.05 1.63.05 5.76v3.4c0 2.8-.08 5.25-1.58 6.74-1.09 1.09-2.56 1.47-3.75 1.47-.93 0-2.18-.11-3.4-1.12-1.33-1.08-2.12-2.75-2.12-6.69v-3.81c0-4.13 0-4.9.05-5.76.06-.95.27-1.42 1.01-1.55.33-.05.49-.08.79-.08.27 0 .43-.06.43-.24 0-.19-.19-.25-.6-.25-.98 0-2.69.08-3.34.08-.82 0-2.53-.08-3.97-.08-.41 0-.6.05-.6.25 0 .19.16.24.46.24.38 0 .85.03 1.06.08.9.19 1.11.63 1.17 1.55.06.87.06 1.63.06 5.76v3.97c0 3.94 1.04 5.96 2.42 7.21 1.98 1.8 4.59 1.88 6.04 1.88 1.77 0 3.73-.3 5.66-1.96 2.28-1.96 2.58-5.17 2.58-8.19v-2.91c0-4.13 0-4.9.05-5.76.06-.95.27-1.42 1.01-1.55.33-.05.49-.08.79-.08.33 0 .49-.06.49-.24s-.19-.24-.57-.24z" fill="#1d4f91"/></svg>